<svg width="1122" height="535" viewBox="0 0 1122 535" fill="none" xmlns="http://www.w3.org/2000/svg">
<g clip-path="url(#clip0_499_8751)">
<path d="M565.8 265.3C605.565 265.3 637.8 233.064 637.8 193.3C637.8 153.535 605.565 121.3 565.8 121.3C526.036 121.3 493.8 153.535 493.8 193.3C493.8 233.064 526.036 265.3 565.8 265.3Z" fill="black"/>
<path d="M565.8 255C599.876 255 627.5 227.376 627.5 193.3C627.5 159.224 599.876 131.6 565.8 131.6C531.724 131.6 504.1 159.224 504.1 193.3C504.1 227.376 531.724 255 565.8 255Z" fill="#1A1A1A"/>
<path d="M720.8 199.3C760.565 199.3 792.8 167.064 792.8 127.3C792.8 87.5353 760.565 55.2998 720.8 55.2998C681.036 55.2998 648.8 87.5353 648.8 127.3C648.8 167.064 681.036 199.3 720.8 199.3Z" fill="black"/>
<path d="M720.8 189C754.876 189 782.5 161.376 782.5 127.3C782.5 93.2239 754.876 65.5999 720.8 65.5999C686.724 65.5999 659.1 93.2239 659.1 127.3C659.1 161.376 686.724 189 720.8 189Z" fill="#1A1A1A"/>
<path d="M888.8 227.3C928.565 227.3 960.8 195.064 960.8 155.3C960.8 115.535 928.565 83.2998 888.8 83.2998C849.036 83.2998 816.8 115.535 816.8 155.3C816.8 195.064 849.036 227.3 888.8 227.3Z" fill="black"/>
<path d="M888.8 217C922.876 217 950.5 189.376 950.5 155.3C950.5 121.224 922.876 93.5999 888.8 93.5999C854.724 93.5999 827.1 121.224 827.1 155.3C827.1 189.376 854.724 217 888.8 217Z" fill="#1A1A1A"/>
<path d="M1049.8 298.3C1089.56 298.3 1121.8 266.064 1121.8 226.3C1121.8 186.535 1089.56 154.3 1049.8 154.3C1010.04 154.3 977.8 186.535 977.8 226.3C977.8 266.064 1010.04 298.3 1049.8 298.3Z" fill="black"/>
<path d="M1110.54 236.989C1116.45 203.43 1094.04 171.432 1060.48 165.521C1026.92 159.61 994.923 182.023 989.012 215.582C983.101 249.141 1005.51 281.139 1039.07 287.05C1072.63 292.962 1104.63 270.548 1110.54 236.989Z" fill="#1A1A1A"/>
<path d="M1089.91 419.861C1096.28 380.61 1069.63 343.626 1030.38 337.255C991.129 330.883 954.145 357.537 947.774 396.788C941.402 436.039 968.056 473.023 1007.31 479.394C1046.56 485.765 1083.54 459.111 1089.91 419.861Z" fill="black"/>
<path d="M1018.8 470C1052.88 470 1080.5 442.376 1080.5 408.3C1080.5 374.224 1052.88 346.6 1018.8 346.6C984.724 346.6 957.1 374.224 957.1 408.3C957.1 442.376 984.724 470 1018.8 470Z" fill="#1A1A1A"/>
<path d="M857.8 409.3C897.565 409.3 929.8 377.064 929.8 337.3C929.8 297.535 897.565 265.3 857.8 265.3C818.036 265.3 785.8 297.535 785.8 337.3C785.8 377.064 818.036 409.3 857.8 409.3Z" fill="black"/>
<path d="M857.8 399C891.876 399 919.5 371.376 919.5 337.3C919.5 303.224 891.876 275.6 857.8 275.6C823.724 275.6 796.1 303.224 796.1 337.3C796.1 371.376 823.724 399 857.8 399Z" fill="#1A1A1A"/>
<path d="M688.8 381.3C728.565 381.3 760.8 349.064 760.8 309.3C760.8 269.535 728.565 237.3 688.8 237.3C649.036 237.3 616.8 269.535 616.8 309.3C616.8 349.064 649.036 381.3 688.8 381.3Z" fill="black"/>
<path d="M688.8 371C722.876 371 750.5 343.376 750.5 309.3C750.5 275.224 722.876 247.6 688.8 247.6C654.724 247.6 627.1 275.224 627.1 309.3C627.1 343.376 654.724 371 688.8 371Z" fill="#1A1A1A"/>
<path d="M532.8 446.3C572.565 446.3 604.8 414.064 604.8 374.3C604.8 334.535 572.565 302.3 532.8 302.3C493.036 302.3 460.8 334.535 460.8 374.3C460.8 414.064 493.036 446.3 532.8 446.3Z" fill="black"/>
<path d="M532.8 436C566.876 436 594.5 408.376 594.5 374.3C594.5 340.224 566.876 312.6 532.8 312.6C498.724 312.6 471.1 340.224 471.1 374.3C471.1 408.376 498.724 436 532.8 436Z" fill="#1A1A1A"/>
<path opacity="0.7" d="M303.8 366.3C335.28 366.3 360.8 340.78 360.8 309.3C360.8 277.82 335.28 252.3 303.8 252.3C272.32 252.3 246.8 277.82 246.8 309.3C246.8 340.78 272.32 366.3 303.8 366.3Z" fill="black"/>
</g>
<defs>
<clipPath id="clip0_499_8751">
<rect width="1121.8" height="533.9" fill="white" transform="translate(0 0.799805)"/>
</clipPath>
</defs>
</svg>
