<svg width="144" height="144" viewBox="0 0 144 144" fill="none" xmlns="http://www.w3.org/2000/svg">
<g clip-path="url(#clip0_752_240)">
<rect width="144" height="144" fill="#7C128E"/>
<path d="M37.1721 68.4645C35.2195 70.4171 35.2195 73.5829 37.1721 75.5355L68.9919 107.355C70.9445 109.308 74.1104 109.308 76.063 107.355C78.0156 105.403 78.0156 102.237 76.063 100.284L47.7787 72L76.063 43.7157C78.0156 41.7631 78.0156 38.5973 76.063 36.6447C74.1104 34.692 70.9445 34.692 68.9919 36.6447L37.1721 68.4645ZM103.292 77C106.054 77 108.292 74.7614 108.292 72C108.292 69.2386 106.054 67 103.292 67V77ZM40.7076 77H103.292V67H40.7076V77Z" fill="white"/>
</g>
<rect x="2.5" y="2.5" width="139" height="139" rx="12.5" stroke="black" stroke-width="5"/>
<defs>
<clipPath id="clip0_752_240">
<rect width="144" height="144" rx="15" fill="white"/>
</clipPath>
</defs>
</svg>
