<svg width="144" height="144" viewBox="0 0 144 144" fill="none" xmlns="http://www.w3.org/2000/svg">
<g clip-path="url(#clip0_726_123)">
<rect width="144" height="144" fill="#1A1A1A" fill-opacity="0.9"/>
<path opacity="0.3" d="M106.851 68.4645C108.803 70.4171 108.803 73.5829 106.851 75.5355L75.031 107.355C73.0784 109.308 69.9126 109.308 67.96 107.355C66.0073 105.403 66.0073 102.237 67.96 100.284L96.2442 72L67.96 43.7157C66.0073 41.7631 66.0073 38.5973 67.96 36.6447C69.9126 34.692 73.0784 34.692 75.031 36.6447L106.851 68.4645ZM40.7307 77C37.9692 77 35.7307 74.7614 35.7307 72C35.7307 69.2386 37.9692 67 40.7307 67V77ZM103.315 77H40.7307V67H103.315V77Z" fill="white"/>
</g>
<rect x="2.5" y="2.5" width="139" height="139" rx="12.5" stroke="black" stroke-width="5"/>
<defs>
<clipPath id="clip0_726_123">
<rect width="144" height="144" rx="15" fill="white"/>
</clipPath>
</defs>
</svg>
