<svg width="1985" height="221" viewBox="0 0 1985 221" fill="none" xmlns="http://www.w3.org/2000/svg">
<g clip-path="url(#clip0_487_7975)">
<path d="M1577.66 35.5119L1577.64 35.5315L1577.62 35.5515C1576.9 36.2784 1576.34 37.1388 1575.97 38.0833C1575.59 39.0278 1575.4 40.0375 1575.42 41.0543C1575.43 42.0712 1575.64 43.0754 1576.05 44.0093C1576.45 44.9417 1577.03 45.7856 1577.76 46.4925C1577.76 46.4935 1577.76 46.4946 1577.76 46.4956L1648.74 115.669C1649.44 116.385 1650.28 116.957 1651.2 117.354C1652.13 117.755 1653.13 117.968 1654.15 117.982C1655.16 117.996 1656.17 117.809 1657.12 117.433C1658.06 117.058 1658.92 116.5 1659.65 115.791C1660.37 115.083 1660.96 114.238 1661.36 113.305C1661.76 112.372 1661.97 111.369 1661.99 110.354C1662 109.339 1661.81 108.331 1661.44 107.387C1661.06 106.444 1660.5 105.584 1659.79 104.856L1659.77 104.833L1659.75 104.811L1588.65 35.4107L1588.63 35.388L1588.6 35.3659C1587.11 33.9809 1585.14 33.2235 1583.1 33.2507C1581.06 33.2779 1579.11 34.0875 1577.66 35.5119Z" fill="#1A1A1A" stroke="#1A1A1A" stroke-width="5"/>
<path d="M1433.75 102.601L1433.71 102.6L1433.67 102.6L1334.28 103.8C1334.28 103.8 1334.28 103.8 1334.28 103.8C1333.26 103.81 1332.25 104.02 1331.32 104.418C1330.38 104.817 1329.53 105.396 1328.82 106.122C1328.11 106.849 1327.55 107.709 1327.16 108.653C1326.79 109.592 1326.6 110.598 1326.6 111.611C1326.6 112.631 1326.81 113.639 1327.21 114.577C1327.61 115.519 1328.2 116.371 1328.93 117.08C1329.67 117.79 1330.54 118.344 1331.5 118.707C1332.45 119.067 1333.45 119.234 1334.46 119.2L1433.5 118C1434.49 118.014 1435.48 117.834 1436.41 117.47C1437.35 117.101 1438.21 116.55 1438.94 115.849C1439.67 115.148 1440.26 114.31 1440.66 113.383C1441.06 112.457 1441.28 111.46 1441.3 110.448C1441.32 109.437 1441.14 108.432 1440.77 107.49C1440.4 106.549 1439.85 105.689 1439.15 104.96C1438.45 104.232 1437.61 103.648 1436.69 103.243C1435.76 102.838 1434.76 102.62 1433.75 102.601Z" fill="#1A1A1A" stroke="#1A1A1A" stroke-width="5"/>
<path d="M1138.35 186.88L1138.35 186.88L1138.35 186.887C1139.08 187.598 1139.94 188.159 1140.89 188.537C1141.83 188.914 1142.84 189.102 1143.86 189.088C1144.87 189.074 1145.88 188.86 1146.81 188.457C1147.74 188.054 1148.59 187.472 1149.3 186.743C1149.3 186.742 1149.3 186.741 1149.3 186.739L1218.47 115.766C1219.19 115.063 1219.76 114.228 1220.16 113.306C1220.56 112.373 1220.77 111.37 1220.79 110.355C1220.8 109.339 1220.61 108.331 1220.24 107.388C1219.86 106.444 1219.3 105.584 1218.59 104.856C1217.89 104.129 1217.04 103.548 1216.11 103.146C1215.18 102.745 1214.17 102.532 1213.16 102.518C1212.14 102.504 1211.13 102.69 1210.19 103.066C1209.25 103.442 1208.39 104 1207.66 104.709L1207.64 104.731L1207.61 104.754L1138.21 175.854L1138.21 175.861L1138.2 175.868C1136.77 177.355 1135.99 179.343 1136.01 181.404C1136.04 183.465 1136.88 185.432 1138.35 186.88Z" fill="#1A1A1A" stroke="#1A1A1A" stroke-width="5"/>
<path d="M984.803 110.052L984.803 110.091L984.803 110.13L986.003 209.501C985.993 210.521 986.188 211.532 986.576 212.476C986.969 213.431 987.552 214.296 988.289 215.019C989.026 215.742 989.902 216.308 990.864 216.683C991.813 217.052 992.826 217.228 993.844 217.2C994.853 217.195 995.851 216.989 996.78 216.594C997.722 216.194 998.573 215.607 999.283 214.87C999.993 214.132 1000.55 213.259 1000.91 212.302C1001.27 211.357 1001.44 210.35 1001.4 209.339L1000.2 110.305C1000.22 109.308 1000.04 108.319 999.673 107.39C999.304 106.449 998.753 105.589 998.052 104.86C997.351 104.132 996.513 103.548 995.586 103.143C994.66 102.738 993.662 102.52 992.651 102.5C991.64 102.481 990.635 102.661 989.693 103.03C988.752 103.399 987.892 103.95 987.163 104.651C986.435 105.352 985.851 106.19 985.446 107.117C985.041 108.043 984.823 109.041 984.803 110.052Z" fill="#1A1A1A" stroke="#1A1A1A" stroke-width="5"/>
<path d="M848.482 184.956L848.49 184.948C849.201 184.221 849.762 183.361 850.139 182.417C850.517 181.472 850.704 180.463 850.691 179.446C850.677 178.429 850.462 177.424 850.059 176.491C849.657 175.558 849.074 174.714 848.345 174.007C848.344 174.006 848.343 174.005 848.342 174.004L777.369 104.831C776.666 104.115 775.83 103.543 774.908 103.146C773.976 102.745 772.973 102.532 771.957 102.518C770.942 102.504 769.934 102.69 768.99 103.066C768.047 103.442 767.187 104 766.459 104.709C765.732 105.417 765.15 106.262 764.749 107.195C764.348 108.127 764.134 109.13 764.121 110.146C764.107 111.161 764.293 112.169 764.669 113.113C765.045 114.056 765.603 114.916 766.311 115.644L766.334 115.667L766.357 115.689L837.457 185.089L837.464 185.096L837.471 185.103C838.957 186.531 840.946 187.316 843.007 187.288C845.068 187.261 847.035 186.423 848.482 184.956Z" fill="#1A1A1A" stroke="#1A1A1A" stroke-width="5"/>
<path d="M551.155 117.999L551.194 118L551.233 118L650.615 116.8C651.634 116.801 652.643 116.6 653.583 116.207C654.53 115.812 655.388 115.231 656.107 114.499C656.825 113.766 657.39 112.897 657.767 111.943C658.141 110.997 658.323 109.988 658.303 108.972C658.3 107.958 658.094 106.956 657.698 106.023C657.297 105.081 656.711 104.229 655.973 103.52C655.235 102.81 654.362 102.256 653.405 101.893C652.46 101.533 651.453 101.366 650.442 101.4L551.408 102.6C549.382 102.572 547.425 103.345 545.964 104.751C544.492 106.167 543.643 108.11 543.604 110.152C543.564 112.194 544.338 114.168 545.754 115.64C547.17 117.111 549.113 117.96 551.155 117.999Z" fill="#1A1A1A" stroke="#1A1A1A" stroke-width="5"/>
<path d="M405.591 33.7522L405.571 33.7322L405.551 33.7126C404.824 33.0014 403.964 32.4409 403.02 32.0632C402.075 31.6855 401.066 31.4982 400.049 31.5119C399.032 31.5257 398.027 31.7402 397.094 32.1433C396.161 32.5459 395.317 33.1287 394.609 33.8583C394.609 33.859 394.608 33.8598 394.607 33.8605L325.434 104.834C324.718 105.537 324.146 106.372 323.749 107.294C323.348 108.227 323.135 109.23 323.121 110.245C323.107 111.261 323.294 112.269 323.669 113.212C324.045 114.156 324.603 115.016 325.312 115.743C326.02 116.471 326.865 117.052 327.798 117.454C328.731 117.855 329.733 118.068 330.749 118.082C331.764 118.096 332.772 117.909 333.716 117.533C334.659 117.158 335.519 116.6 336.247 115.891L336.27 115.869L336.292 115.846L405.692 44.746L405.715 44.7227L405.737 44.6989C407.122 43.2042 407.879 41.2341 407.852 39.1964C407.825 37.1587 407.015 35.2095 405.591 33.7522Z" fill="#1A1A1A" stroke="#1A1A1A" stroke-width="5"/>
<path d="M1873.41 3.29981L1873.41 3.29981C1872.38 3.29902 1871.37 3.50502 1870.43 3.90546C1869.48 4.30591 1868.63 4.89253 1867.92 5.63011C1867.21 6.36767 1866.66 7.24104 1866.3 8.19784C1865.94 9.14308 1865.77 10.1504 1865.8 11.1606L1867 110.195C1866.99 111.191 1867.17 112.181 1867.53 113.109C1867.9 114.051 1868.45 114.911 1869.15 115.64C1870.57 117.111 1872.51 117.96 1874.56 117.999C1876.6 118.039 1878.57 117.265 1880.04 115.849C1881.51 114.433 1882.36 112.49 1882.4 110.448L1882.4 110.409L1882.4 110.37L1881.2 10.9696L1881.2 10.9588L1881.2 10.948C1881.16 8.90749 1880.32 6.96447 1878.86 5.53495C1877.41 4.10551 1875.45 3.30322 1873.41 3.29981Z" fill="#1A1A1A" stroke="#1A1A1A" stroke-width="5"/>
<path d="M110.015 163C139.286 163 163.015 139.271 163.015 110C163.015 80.7289 139.286 57 110.015 57C80.7436 57 57.0146 80.7289 57.0146 110C57.0146 139.271 80.7436 163 110.015 163Z" fill="url(#paint0_radial_487_7975)"/>
<g opacity="0.1" filter="url(#filter0_f_487_7975)">
<path d="M141.487 81.2422C142.836 78.7069 139.029 74.0437 132.983 70.8264C126.938 67.6092 120.943 67.0564 119.594 69.5916C118.245 72.1269 122.052 76.7902 128.097 80.0074C134.143 83.2246 140.138 83.7774 141.487 81.2422Z" fill="white"/>
</g>
<g opacity="0.1" filter="url(#filter1_f_487_7975)">
<path d="M137.215 146C129.02 147.556 120.598 147.481 112.432 145.779C104.266 144.077 96.5157 140.783 89.6242 136.083C82.7327 131.383 76.8353 125.371 72.2694 118.391C67.7034 111.41 64.5585 103.597 63.0146 95.4C62.54 92.7865 62.2062 90.1493 62.0146 87.5C56.4016 99.4584 55.4642 113.084 59.3865 125.698C63.3088 138.313 71.8072 149.004 83.2115 155.671C94.6158 162.338 108.101 164.499 121.018 161.729C133.934 158.958 145.347 151.457 153.015 140.7C148.045 143.252 142.718 145.038 137.215 146Z" fill="black"/>
</g>
<path opacity="0.14" d="M162.515 110C162.515 138.995 139.01 162.5 110.015 162.5C81.0197 162.5 57.5146 138.995 57.5146 110C57.5146 81.0051 81.0197 57.5 110.015 57.5C139.01 57.5 162.515 81.0051 162.515 110Z" stroke="url(#paint1_linear_487_7975)"/>
<path d="M371.015 122C400.286 122 424.015 98.2711 424.015 69C424.015 39.7289 400.286 16 371.015 16C341.744 16 318.015 39.7289 318.015 69C318.015 98.2711 341.744 122 371.015 122Z" fill="url(#paint2_radial_487_7975)"/>
<g opacity="0.1" filter="url(#filter2_f_487_7975)">
<path d="M402.487 40.2422C403.836 37.7069 400.029 33.0437 393.983 29.8264C387.938 26.6092 381.943 26.0564 380.594 28.5916C379.245 31.1269 383.052 35.7902 389.097 39.0074C395.143 42.2246 401.138 42.7774 402.487 40.2422Z" fill="white"/>
</g>
<g opacity="0.1" filter="url(#filter3_f_487_7975)">
<path d="M398.215 105C390.02 106.556 381.598 106.481 373.432 104.779C365.266 103.077 357.516 99.7827 350.624 95.0831C343.733 90.3835 337.835 84.3713 333.269 77.3905C328.703 70.4097 325.559 62.5973 324.015 54.4C323.54 51.7865 323.206 49.1493 323.015 46.5C317.402 58.4584 316.464 72.0837 320.387 84.6981C324.309 97.3126 332.807 108.004 344.211 114.671C355.616 121.338 369.101 123.499 382.018 120.729C394.934 117.958 406.347 110.457 414.015 99.7C409.045 102.252 403.718 104.038 398.215 105Z" fill="black"/>
</g>
<path opacity="0.14" d="M423.515 69C423.515 97.9949 400.01 121.5 371.015 121.5C342.02 121.5 318.515 97.9949 318.515 69C318.515 40.0051 342.02 16.5 371.015 16.5C400.01 16.5 423.515 40.0051 423.515 69Z" stroke="url(#paint3_linear_487_7975)"/>
<path d="M571.536 146.44C592.234 167.138 625.791 167.138 646.489 146.44C667.187 125.742 667.187 92.1847 646.489 71.4869C625.791 50.7891 592.234 50.7891 571.536 71.4869C550.838 92.1847 550.838 125.742 571.536 146.44Z" fill="url(#paint4_radial_487_7975)"/>
<g opacity="0.1" filter="url(#filter4_f_487_7975)">
<path d="M651.601 110.883C654.348 110.044 654.953 104.055 652.953 97.5049C650.953 90.9551 647.106 86.3253 644.359 87.164C641.612 88.0027 641.007 93.9923 643.007 100.542C645.007 107.092 648.855 111.722 651.601 110.883Z" fill="white"/>
</g>
<g opacity="0.1" filter="url(#filter5_f_487_7975)">
<path d="M602.79 153.653C595.895 148.958 589.993 142.95 585.422 135.973C580.851 128.995 577.701 121.185 576.151 112.989C574.601 104.793 574.682 96.3716 576.39 88.2069C578.097 80.0421 581.398 72.2941 586.102 65.406C587.615 63.2224 589.244 61.1216 590.981 59.1127C578.557 63.5997 568.259 72.5713 562.113 84.2646C555.967 95.9578 554.416 109.527 557.766 122.305C561.115 135.084 569.123 146.147 580.215 153.322C591.307 160.496 604.682 163.263 617.71 161.078C612.391 159.367 607.361 156.864 602.79 153.653Z" fill="black"/>
</g>
<path opacity="0.14" d="M646.136 146.087C625.633 166.589 592.392 166.589 571.889 146.087C551.387 125.584 551.387 92.343 571.889 71.8405C592.392 51.3379 625.633 51.3379 646.136 71.8405C666.638 92.343 666.638 125.584 646.136 146.087Z" stroke="url(#paint5_linear_487_7975)"/>
<path d="M760.007 150.015C760.007 179.286 783.736 203.015 813.007 203.015C842.278 203.015 866.007 179.286 866.007 150.015C866.007 120.744 842.278 97.0146 813.007 97.0146C783.736 97.0146 760.007 120.744 760.007 150.015Z" fill="url(#paint6_radial_487_7975)"/>
<g opacity="0.1" filter="url(#filter6_f_487_7975)">
<path d="M841.765 181.487C844.3 182.836 848.963 179.029 852.181 172.983C855.398 166.938 855.951 160.943 853.415 159.594C850.88 158.245 846.217 162.052 843 168.097C839.782 174.143 839.23 180.138 841.765 181.487Z" fill="white"/>
</g>
<g opacity="0.1" filter="url(#filter7_f_487_7975)">
<path d="M777.007 177.215C775.451 169.02 775.527 160.598 777.228 152.432C778.93 144.266 782.225 136.516 786.924 129.624C791.624 122.733 797.636 116.835 804.617 112.269C811.598 107.703 819.41 104.559 827.607 103.015C830.221 102.54 832.858 102.206 835.507 102.015C823.549 96.4016 809.924 95.4642 797.309 99.3865C784.695 103.309 774.003 111.807 767.336 123.211C760.669 134.616 758.508 148.101 761.279 161.018C764.049 173.934 771.55 185.347 782.307 193.015C779.756 188.045 777.969 182.718 777.007 177.215Z" fill="black"/>
</g>
<path opacity="0.14" d="M813.007 202.515C784.012 202.515 760.507 179.01 760.507 150.015C760.507 121.02 784.012 97.5146 813.007 97.5146C842.002 97.5146 865.507 121.02 865.507 150.015C865.507 179.01 842.002 202.515 813.007 202.515Z" stroke="url(#paint7_linear_487_7975)"/>
<path d="M955.526 130.487C934.828 151.185 934.828 184.742 955.526 205.44C976.223 226.138 1009.78 226.138 1030.48 205.44C1051.18 184.742 1051.18 151.185 1030.48 130.487C1009.78 109.789 976.223 109.789 955.526 130.487Z" fill="url(#paint8_radial_487_7975)"/>
<g opacity="0.1" filter="url(#filter8_f_487_7975)">
<path d="M991.083 210.552C991.921 213.299 997.911 213.904 1004.46 211.904C1011.01 209.904 1015.64 206.056 1014.8 203.31C1013.96 200.563 1007.97 199.958 1001.42 201.958C994.874 203.958 990.244 207.806 991.083 210.552Z" fill="white"/>
</g>
<g opacity="0.1" filter="url(#filter9_f_487_7975)">
<path d="M948.313 161.741C953.008 154.846 959.016 148.944 965.993 144.373C972.971 139.802 980.781 136.652 988.977 135.102C997.173 133.552 1005.59 133.633 1013.76 135.34C1021.92 137.048 1029.67 140.348 1036.56 145.053C1038.74 146.566 1040.84 148.194 1042.85 149.932C1038.37 137.507 1029.39 127.21 1017.7 121.064C1006.01 114.917 992.439 113.367 979.661 116.716C966.882 120.066 955.819 128.074 948.644 139.166C941.47 150.258 938.703 163.633 940.889 176.661C942.599 171.342 945.102 166.312 948.313 161.741Z" fill="black"/>
</g>
<path opacity="0.14" d="M955.879 205.086C935.377 184.584 935.377 151.343 955.879 130.84C976.382 110.338 1009.62 110.338 1030.13 130.84C1050.63 151.343 1050.63 184.584 1030.13 205.086C1009.62 225.589 976.382 225.589 955.879 205.086Z" stroke="url(#paint9_linear_487_7975)"/>
<path d="M1173 98C1143.73 98 1120 121.729 1120 151C1120 180.271 1143.73 204 1173 204C1202.27 204 1226 180.271 1226 151C1226 121.729 1202.27 98 1173 98Z" fill="url(#paint10_radial_487_7975)"/>
<g opacity="0.1" filter="url(#filter10_f_487_7975)">
<path d="M1141.53 179.758C1140.18 182.293 1143.99 186.956 1150.03 190.174C1156.08 193.391 1162.07 193.944 1163.42 191.408C1164.77 188.873 1160.96 184.21 1154.92 180.993C1148.87 177.775 1142.88 177.223 1141.53 179.758Z" fill="white"/>
</g>
<g opacity="0.1" filter="url(#filter11_f_487_7975)">
<path d="M1145.8 115C1154 113.444 1162.42 113.519 1170.58 115.221C1178.75 116.922 1186.5 120.217 1193.39 124.917C1200.28 129.617 1206.18 135.629 1210.75 142.609C1215.31 149.59 1218.46 157.403 1220 165.6C1220.47 168.214 1220.81 170.851 1221 173.5C1226.61 161.542 1227.55 147.916 1223.63 135.302C1219.71 122.687 1211.21 111.996 1199.8 105.329C1188.4 98.6618 1174.91 96.5011 1162 99.2713C1149.08 102.042 1137.67 109.543 1130 120.3C1134.97 117.748 1140.3 115.962 1145.8 115Z" fill="black"/>
</g>
<path opacity="0.14" d="M1120.5 151C1120.5 122.005 1144.01 98.5 1173 98.5C1201.99 98.5 1225.5 122.005 1225.5 151C1225.5 179.995 1201.99 203.5 1173 203.5C1144.01 203.5 1120.5 179.995 1120.5 151Z" stroke="url(#paint11_linear_487_7975)"/>
<path d="M1402.5 65.5001C1377.15 50.8646 1344.74 59.55 1330.1 84.8995C1315.47 110.249 1324.15 142.663 1349.5 157.299C1374.85 171.934 1407.26 163.249 1421.9 137.899C1436.54 112.55 1427.85 80.1357 1402.5 65.5001Z" fill="url(#paint12_radial_487_7975)"/>
<g opacity="0.1" filter="url(#filter12_f_487_7975)">
<path d="M1334.37 120.568C1331.93 122.089 1332.9 128.032 1336.52 133.841C1340.15 139.65 1345.07 143.126 1347.5 141.605C1349.94 140.084 1348.97 134.141 1345.34 128.332C1341.72 122.524 1336.8 119.047 1334.37 120.568Z" fill="white"/>
</g>
<g opacity="0.1" filter="url(#filter13_f_487_7975)">
<path d="M1370.44 66.6228C1378.32 69.3729 1385.58 73.6486 1391.8 79.2053C1398.02 84.7619 1403.08 91.4906 1406.7 99.0063C1410.32 106.522 1412.42 114.677 1412.88 123.006C1413.35 131.334 1412.17 139.673 1409.4 147.544C1408.51 150.044 1407.48 152.495 1406.32 154.885C1417.16 147.335 1424.78 136.004 1427.7 123.119C1430.61 110.233 1428.59 96.725 1422.05 85.249C1415.51 73.7729 1404.91 65.1589 1392.34 61.0998C1379.77 57.0407 1366.13 57.8301 1354.11 63.3127C1359.69 63.588 1365.2 64.704 1370.44 66.6228Z" fill="black"/>
</g>
<path opacity="0.14" d="M1330.53 85.1495C1345.03 60.0391 1377.14 51.4357 1402.25 65.9331C1427.36 80.4306 1435.96 112.539 1421.47 137.649C1406.97 162.76 1374.86 171.363 1349.75 156.866C1324.64 142.368 1316.04 110.26 1330.53 85.1495Z" stroke="url(#paint13_linear_487_7975)"/>
<path d="M1666 70C1666 40.7289 1642.27 17 1613 17C1583.73 17 1560 40.7289 1560 70C1560 99.2711 1583.73 123 1613 123C1642.27 123 1666 99.2711 1666 70Z" fill="url(#paint14_radial_487_7975)"/>
<g opacity="0.1" filter="url(#filter14_f_487_7975)">
<path d="M1584.24 38.5279C1581.71 37.1787 1577.04 40.9859 1573.83 47.0315C1570.61 53.0771 1570.06 59.0718 1572.59 60.4209C1575.13 61.7701 1579.79 57.9628 1583.01 51.9173C1586.22 45.8717 1586.78 39.877 1584.24 38.5279Z" fill="white"/>
</g>
<g opacity="0.1" filter="url(#filter15_f_487_7975)">
<path d="M1649 42.8001C1650.56 50.9951 1650.48 59.4165 1648.78 67.5825C1647.08 75.7485 1643.78 83.4989 1639.08 90.3904C1634.38 97.2819 1628.37 103.179 1621.39 107.745C1614.41 112.311 1606.6 115.456 1598.4 117C1595.79 117.475 1593.15 117.808 1590.5 118C1602.46 123.613 1616.08 124.55 1628.7 120.628C1641.31 116.706 1652 108.207 1658.67 96.8032C1665.34 85.3989 1667.5 71.9134 1664.73 58.9969C1661.96 46.0805 1654.46 34.6672 1643.7 27.0001C1646.25 31.9701 1648.04 37.2968 1649 42.8001Z" fill="black"/>
</g>
<path opacity="0.14" d="M1613 17.5C1641.99 17.5 1665.5 41.005 1665.5 70C1665.5 98.9949 1641.99 122.5 1613 122.5C1584.01 122.5 1560.5 98.9949 1560.5 70C1560.5 41.0051 1584.01 17.5 1613 17.5Z" stroke="url(#paint15_linear_487_7975)"/>
<path d="M1911.48 90.4298C1932.18 69.732 1932.18 36.1743 1911.48 15.4765C1890.78 -5.22132 1857.23 -5.22132 1836.53 15.4765C1815.83 36.1743 1815.83 69.732 1836.53 90.4298C1857.23 111.128 1890.78 111.128 1911.48 90.4298Z" fill="url(#paint16_radial_487_7975)"/>
<g opacity="0.1" filter="url(#filter16_f_487_7975)">
<path d="M1875.92 10.3642C1875.09 7.61753 1869.1 7.0122 1862.55 9.01218C1856 11.0121 1851.37 14.8601 1852.21 17.6068C1853.04 20.3534 1859.03 20.9588 1865.58 18.9588C1872.13 16.9588 1876.76 13.1109 1875.92 10.3642Z" fill="white"/>
</g>
<g opacity="0.1" filter="url(#filter17_f_487_7975)">
<path d="M1918.69 59.1758C1914 66.0707 1907.99 71.9724 1901.01 76.5434C1894.04 81.1144 1886.23 84.265 1878.03 85.8149C1869.83 87.3648 1861.41 87.2836 1853.25 85.5761C1845.08 83.8685 1837.34 80.5681 1830.45 75.8635C1828.26 74.351 1826.16 72.7223 1824.15 70.9844C1828.64 83.4092 1837.61 93.7066 1849.31 99.8529C1861 105.999 1874.57 107.55 1887.35 104.2C1900.13 100.85 1911.19 92.8427 1918.36 81.7505C1925.54 70.6584 1928.3 57.284 1926.12 44.2558C1924.41 49.5743 1921.91 54.6043 1918.69 59.1758Z" fill="black"/>
</g>
<path opacity="0.14" d="M1911.13 15.83C1931.63 36.3325 1931.63 69.5737 1911.13 90.0762C1890.63 110.579 1857.38 110.579 1836.88 90.0762C1816.38 69.5737 1816.38 36.3325 1836.88 15.83C1857.38 -4.67251 1890.63 -4.6725 1911.13 15.83Z" stroke="url(#paint17_linear_487_7975)"/>
</g>
<defs>
<filter id="filter0_f_487_7975" x="113.322" y="62" width="34.4365" height="26.834" filterUnits="userSpaceOnUse" color-interpolation-filters="sRGB">
<feFlood flood-opacity="0" result="BackgroundImageFix"/>
<feBlend mode="normal" in="SourceGraphic" in2="BackgroundImageFix" result="shape"/>
<feGaussianBlur stdDeviation="3" result="effect1_foregroundBlur_487_7975"/>
</filter>
<filter id="filter1_f_487_7975" x="49" y="79.5" width="112.015" height="91.4053" filterUnits="userSpaceOnUse" color-interpolation-filters="sRGB">
<feFlood flood-opacity="0" result="BackgroundImageFix"/>
<feBlend mode="normal" in="SourceGraphic" in2="BackgroundImageFix" result="shape"/>
<feGaussianBlur stdDeviation="4" result="effect1_foregroundBlur_487_7975"/>
</filter>
<filter id="filter2_f_487_7975" x="374.322" y="21" width="34.4365" height="26.834" filterUnits="userSpaceOnUse" color-interpolation-filters="sRGB">
<feFlood flood-opacity="0" result="BackgroundImageFix"/>
<feBlend mode="normal" in="SourceGraphic" in2="BackgroundImageFix" result="shape"/>
<feGaussianBlur stdDeviation="3" result="effect1_foregroundBlur_487_7975"/>
</filter>
<filter id="filter3_f_487_7975" x="310" y="38.5" width="112.015" height="91.4053" filterUnits="userSpaceOnUse" color-interpolation-filters="sRGB">
<feFlood flood-opacity="0" result="BackgroundImageFix"/>
<feBlend mode="normal" in="SourceGraphic" in2="BackgroundImageFix" result="shape"/>
<feGaussianBlur stdDeviation="4" result="effect1_foregroundBlur_487_7975"/>
</filter>
<filter id="filter4_f_487_7975" x="635.828" y="81.0659" width="24.3049" height="35.915" filterUnits="userSpaceOnUse" color-interpolation-filters="sRGB">
<feFlood flood-opacity="0" result="BackgroundImageFix"/>
<feBlend mode="normal" in="SourceGraphic" in2="BackgroundImageFix" result="shape"/>
<feGaussianBlur stdDeviation="3" result="effect1_foregroundBlur_487_7975"/>
</filter>
<filter id="filter5_f_487_7975" x="548.036" y="51.1128" width="77.6738" height="118.694" filterUnits="userSpaceOnUse" color-interpolation-filters="sRGB">
<feFlood flood-opacity="0" result="BackgroundImageFix"/>
<feBlend mode="normal" in="SourceGraphic" in2="BackgroundImageFix" result="shape"/>
<feGaussianBlur stdDeviation="4" result="effect1_foregroundBlur_487_7975"/>
</filter>
<filter id="filter6_f_487_7975" x="834.173" y="153.322" width="26.8337" height="34.436" filterUnits="userSpaceOnUse" color-interpolation-filters="sRGB">
<feFlood flood-opacity="0" result="BackgroundImageFix"/>
<feBlend mode="normal" in="SourceGraphic" in2="BackgroundImageFix" result="shape"/>
<feGaussianBlur stdDeviation="3" result="effect1_foregroundBlur_487_7975"/>
</filter>
<filter id="filter7_f_487_7975" x="752.102" y="89" width="91.4055" height="112.015" filterUnits="userSpaceOnUse" color-interpolation-filters="sRGB">
<feFlood flood-opacity="0" result="BackgroundImageFix"/>
<feBlend mode="normal" in="SourceGraphic" in2="BackgroundImageFix" result="shape"/>
<feGaussianBlur stdDeviation="4" result="effect1_foregroundBlur_487_7975"/>
</filter>
<filter id="filter8_f_487_7975" x="984.985" y="194.778" width="35.915" height="24.3052" filterUnits="userSpaceOnUse" color-interpolation-filters="sRGB">
<feFlood flood-opacity="0" result="BackgroundImageFix"/>
<feBlend mode="normal" in="SourceGraphic" in2="BackgroundImageFix" result="shape"/>
<feGaussianBlur stdDeviation="3" result="effect1_foregroundBlur_487_7975"/>
</filter>
<filter id="filter9_f_487_7975" x="932.159" y="106.987" width="118.694" height="77.6738" filterUnits="userSpaceOnUse" color-interpolation-filters="sRGB">
<feFlood flood-opacity="0" result="BackgroundImageFix"/>
<feBlend mode="normal" in="SourceGraphic" in2="BackgroundImageFix" result="shape"/>
<feGaussianBlur stdDeviation="4" result="effect1_foregroundBlur_487_7975"/>
</filter>
<filter id="filter10_f_487_7975" x="1135.26" y="172.166" width="34.4365" height="26.834" filterUnits="userSpaceOnUse" color-interpolation-filters="sRGB">
<feFlood flood-opacity="0" result="BackgroundImageFix"/>
<feBlend mode="normal" in="SourceGraphic" in2="BackgroundImageFix" result="shape"/>
<feGaussianBlur stdDeviation="3" result="effect1_foregroundBlur_487_7975"/>
</filter>
<filter id="filter11_f_487_7975" x="1122" y="90.0947" width="112.015" height="91.4053" filterUnits="userSpaceOnUse" color-interpolation-filters="sRGB">
<feFlood flood-opacity="0" result="BackgroundImageFix"/>
<feBlend mode="normal" in="SourceGraphic" in2="BackgroundImageFix" result="shape"/>
<feGaussianBlur stdDeviation="4" result="effect1_foregroundBlur_487_7975"/>
</filter>
<filter id="filter12_f_487_7975" x="1327.02" y="114.211" width="27.8237" height="33.7505" filterUnits="userSpaceOnUse" color-interpolation-filters="sRGB">
<feFlood flood-opacity="0" result="BackgroundImageFix"/>
<feBlend mode="normal" in="SourceGraphic" in2="BackgroundImageFix" result="shape"/>
<feGaussianBlur stdDeviation="3" result="effect1_foregroundBlur_487_7975"/>
</filter>
<filter id="filter13_f_487_7975" x="1346.11" y="50.5396" width="90.8838" height="112.346" filterUnits="userSpaceOnUse" color-interpolation-filters="sRGB">
<feFlood flood-opacity="0" result="BackgroundImageFix"/>
<feBlend mode="normal" in="SourceGraphic" in2="BackgroundImageFix" result="shape"/>
<feGaussianBlur stdDeviation="4" result="effect1_foregroundBlur_487_7975"/>
</filter>
<filter id="filter14_f_487_7975" x="1565" y="32.2563" width="26.8339" height="34.436" filterUnits="userSpaceOnUse" color-interpolation-filters="sRGB">
<feFlood flood-opacity="0" result="BackgroundImageFix"/>
<feBlend mode="normal" in="SourceGraphic" in2="BackgroundImageFix" result="shape"/>
<feGaussianBlur stdDeviation="3" result="effect1_foregroundBlur_487_7975"/>
</filter>
<filter id="filter15_f_487_7975" x="1582.5" y="19" width="91.4055" height="112.015" filterUnits="userSpaceOnUse" color-interpolation-filters="sRGB">
<feFlood flood-opacity="0" result="BackgroundImageFix"/>
<feBlend mode="normal" in="SourceGraphic" in2="BackgroundImageFix" result="shape"/>
<feGaussianBlur stdDeviation="4" result="effect1_foregroundBlur_487_7975"/>
</filter>
<filter id="filter16_f_487_7975" x="1846.11" y="1.83301" width="35.9152" height="24.3052" filterUnits="userSpaceOnUse" color-interpolation-filters="sRGB">
<feFlood flood-opacity="0" result="BackgroundImageFix"/>
<feBlend mode="normal" in="SourceGraphic" in2="BackgroundImageFix" result="shape"/>
<feGaussianBlur stdDeviation="3" result="effect1_foregroundBlur_487_7975"/>
</filter>
<filter id="filter17_f_487_7975" x="1816.15" y="36.2559" width="118.694" height="77.6738" filterUnits="userSpaceOnUse" color-interpolation-filters="sRGB">
<feFlood flood-opacity="0" result="BackgroundImageFix"/>
<feBlend mode="normal" in="SourceGraphic" in2="BackgroundImageFix" result="shape"/>
<feGaussianBlur stdDeviation="4" result="effect1_foregroundBlur_487_7975"/>
</filter>
<radialGradient id="paint0_radial_487_7975" cx="0" cy="0" r="1" gradientUnits="userSpaceOnUse" gradientTransform="translate(123.215 94.5) rotate(130.7) scale(94.3107)">
<stop stop-color="#4A28B6"/>
<stop offset="1" stop-color="#341772"/>
</radialGradient>
<linearGradient id="paint1_linear_487_7975" x1="110.015" y1="47.5" x2="110.015" y2="173" gradientUnits="userSpaceOnUse">
<stop stop-color="white" stop-opacity="0"/>
<stop offset="1" stop-color="white"/>
</linearGradient>
<radialGradient id="paint2_radial_487_7975" cx="0" cy="0" r="1" gradientUnits="userSpaceOnUse" gradientTransform="translate(384.215 53.5) rotate(130.7) scale(94.3107)">
<stop stop-color="#4A28B6"/>
<stop offset="1" stop-color="#341772"/>
</radialGradient>
<linearGradient id="paint3_linear_487_7975" x1="371.015" y1="6.5" x2="371.015" y2="132" gradientUnits="userSpaceOnUse">
<stop stop-color="white" stop-opacity="0"/>
<stop offset="1" stop-color="white"/>
</linearGradient>
<radialGradient id="paint4_radial_487_7975" cx="0" cy="0" r="1" gradientUnits="userSpaceOnUse" gradientTransform="translate(629.306 107.337) rotate(175.7) scale(94.3107)">
<stop stop-color="#4A28B6"/>
<stop offset="1" stop-color="#341772"/>
</radialGradient>
<linearGradient id="paint5_linear_487_7975" x1="653.207" y1="64.7694" x2="564.465" y2="153.511" gradientUnits="userSpaceOnUse">
<stop stop-color="white" stop-opacity="0"/>
<stop offset="1" stop-color="white"/>
</linearGradient>
<radialGradient id="paint6_radial_487_7975" cx="0" cy="0" r="1" gradientUnits="userSpaceOnUse" gradientTransform="translate(828.507 163.215) rotate(-139.3) scale(94.3107)">
<stop stop-color="#4A28B6"/>
<stop offset="1" stop-color="#341772"/>
</radialGradient>
<linearGradient id="paint7_linear_487_7975" x1="875.507" y1="150.015" x2="750.007" y2="150.015" gradientUnits="userSpaceOnUse">
<stop stop-color="white" stop-opacity="0"/>
<stop offset="1" stop-color="white"/>
</linearGradient>
<radialGradient id="paint8_radial_487_7975" cx="0" cy="0" r="1" gradientUnits="userSpaceOnUse" gradientTransform="translate(994.629 188.257) rotate(-94.2999) scale(94.3107)">
<stop stop-color="#4A28B6"/>
<stop offset="1" stop-color="#341772"/>
</radialGradient>
<linearGradient id="paint9_linear_487_7975" x1="1037.2" y1="212.158" x2="948.455" y2="123.416" gradientUnits="userSpaceOnUse">
<stop stop-color="white" stop-opacity="0"/>
<stop offset="1" stop-color="white"/>
</linearGradient>
<radialGradient id="paint10_radial_487_7975" cx="0" cy="0" r="1" gradientUnits="userSpaceOnUse" gradientTransform="translate(1159.8 166.5) rotate(-49.2999) scale(94.3107)">
<stop stop-color="#4A28B6"/>
<stop offset="1" stop-color="#341772"/>
</radialGradient>
<linearGradient id="paint11_linear_487_7975" x1="1173" y1="213.5" x2="1173" y2="88" gradientUnits="userSpaceOnUse">
<stop stop-color="white" stop-opacity="0"/>
<stop offset="1" stop-color="white"/>
</linearGradient>
<radialGradient id="paint12_radial_487_7975" cx="0" cy="0" r="1" gradientUnits="userSpaceOnUse" gradientTransform="translate(1356.82 118.223) rotate(-19.2999) scale(94.3107)">
<stop stop-color="#4A28B6"/>
<stop offset="1" stop-color="#341772"/>
</radialGradient>
<linearGradient id="paint13_linear_487_7975" x1="1344.75" y1="165.526" x2="1407.5" y2="56.8399" gradientUnits="userSpaceOnUse">
<stop stop-color="white" stop-opacity="0"/>
<stop offset="1" stop-color="white"/>
</linearGradient>
<radialGradient id="paint14_radial_487_7975" cx="0" cy="0" r="1" gradientUnits="userSpaceOnUse" gradientTransform="translate(1597.5 56.8001) rotate(40.7001) scale(94.3107)">
<stop stop-color="#4A28B6"/>
<stop offset="1" stop-color="#341772"/>
</radialGradient>
<linearGradient id="paint15_linear_487_7975" x1="1550.5" y1="70" x2="1676" y2="70" gradientUnits="userSpaceOnUse">
<stop stop-color="white" stop-opacity="0"/>
<stop offset="1" stop-color="white"/>
</linearGradient>
<radialGradient id="paint16_radial_487_7975" cx="0" cy="0" r="1" gradientUnits="userSpaceOnUse" gradientTransform="translate(1872.38 32.6592) rotate(85.7001) scale(94.3107)">
<stop stop-color="#4A28B6"/>
<stop offset="1" stop-color="#341772"/>
</radialGradient>
<linearGradient id="paint17_linear_487_7975" x1="1829.81" y1="8.75895" x2="1918.55" y2="97.5008" gradientUnits="userSpaceOnUse">
<stop stop-color="white" stop-opacity="0"/>
<stop offset="1" stop-color="white"/>
</linearGradient>
<clipPath id="clip0_487_7975">
<rect width="1985" height="220.6" fill="white"/>
</clipPath>
</defs>
</svg>
