<svg width="154" height="154" viewBox="0 0 154 154" fill="none" xmlns="http://www.w3.org/2000/svg">
<g clip-path="url(#clip0_726_123)">
<rect x="5" y="5" width="144" height="144" fill="#1A1A1A" fill-opacity="0.9"/>
<path opacity="0.3" d="M111.851 73.4645C113.803 75.4171 113.803 78.5829 111.851 80.5355L80.031 112.355C78.0784 114.308 74.9126 114.308 72.96 112.355C71.0073 110.403 71.0073 107.237 72.96 105.284L101.244 77L72.96 48.7157C71.0073 46.7631 71.0073 43.5973 72.96 41.6447C74.9126 39.692 78.0784 39.692 80.031 41.6447L111.851 73.4645ZM45.7307 82C42.9692 82 40.7307 79.7614 40.7307 77C40.7307 74.2386 42.9692 72 45.7307 72V82ZM108.315 82H45.7307V72H108.315V82Z" fill="white"/>
</g>
<rect x="2.5" y="2.5" width="149" height="149" rx="17.5" stroke="black" stroke-width="5"/>
<defs>
<clipPath id="clip0_726_123">
<rect x="5" y="5" width="144" height="144" rx="15" fill="white"/>
</clipPath>
</defs>
</svg>
