<svg width="154" height="154" viewBox="0 0 154 154" fill="none" xmlns="http://www.w3.org/2000/svg">
<g clip-path="url(#clip0_726_120)">
<rect x="5" y="5" width="144" height="144" fill="#1A1A1A" fill-opacity="0.9"/>
<path opacity="0.3" d="M42.1721 73.4645C40.2195 75.4171 40.2195 78.5829 42.1721 80.5355L73.9919 112.355C75.9445 114.308 79.1104 114.308 81.063 112.355C83.0156 110.403 83.0156 107.237 81.063 105.284L52.7787 77L81.063 48.7157C83.0156 46.7631 83.0156 43.5973 81.063 41.6447C79.1104 39.692 75.9445 39.692 73.9919 41.6447L42.1721 73.4645ZM108.292 82C111.054 82 113.292 79.7614 113.292 77C113.292 74.2386 111.054 72 108.292 72V82ZM45.7076 82H108.292V72H45.7076V82Z" fill="white"/>
</g>
<rect x="2.5" y="2.5" width="149" height="149" rx="17.5" stroke="black" stroke-width="5"/>
<defs>
<clipPath id="clip0_726_120">
<rect x="5" y="5" width="144" height="144" rx="15" fill="white"/>
</clipPath>
</defs>
</svg>
